{"title":"Young Bi Passion 2 DVDRIP","uid":8885871,"size":1465965706,"categoryP":"porn","categoryS":"movies","magnet":"?xt=urn:btih:b5896cc3ad0248c2c9097fff56c0bbb5e9b4eb0a&amp;dn=Young+Bi+Passion+2+DVDRIP&amp;tr=udp%3A%2F%2Ftracker.openbittorrent.com%3A80&amp;tr=udp%3A%2F%2Fopen.demonii.com%3A1337&amp;tr=udp%3A%2F%2Ftracker.coppersurfer.tk%3A6969&amp;tr=udp%3A%2F%2Fexodus.desync.com%3A6969","seeders":1,"leechers":0,"uploader":null,"files":1,"time":1378458365,"description":"Format                                   : AVI\nFormat/Info                              : Audio Video Interleave\nFile size                                : 1.37 GiB\nDuration                                 : 2h 46mn\nOverall bit rate mode                    : Variable\nOverall bit rate                         : 1 177 Kbps\n\nVideo\nID                                       : 0\nFormat                                   : MPEG-4 Visual\nFormat profile                           : Advanced Simple@L5\nFormat settings, BVOP                    : 2\nFormat settings, QPel                    : No\nFormat settings, GMC                     : No warppoints\nFormat settings, Matrix                  : Default (H.263)\nCodec ID                                 : XVID\nCodec ID/Hint                            : XviD\nDuration                                 : 2h 46mn\nBit rate                                 : 1 042 Kbps\nWidth                                    : 576 pixels\nHeight                                   : 432 pixels\nDisplay aspect ratio                     : 4:3\nFrame rate                               : 25.000 fps\nColor space                              : YUV\nChroma subsampling                       : 4:2:0\nBit depth                                : 8 bits\nScan type                                : Progressive\nCompression mode                         : Lossy\nBits/(Pixel*Frame)                       : 0.168\nStream size                              : 1.21 GiB (89%)\nWriting library                          : XviD 1.2.1 (UTC 2008-12-04)\n\nAudio\nID                                       : 1\nFormat                                   : MPEG Audio\nFormat version                           : Version 1\nFormat profile                           : Layer 3\nMode                                     : Joint stereo\nMode extension                           : MS Stereo\nCodec ID                                 : 55\nCodec ID/Hint                            : MP3\nDuration                                 : 1h 39mn\nSource duration                          : 2h 45mn\nBit rate mode                            : Variable\nBit rate                                 : 122 Kbps\nChannel(s)                               : 2 channels\nSampling rate                            : 48.0 KHz\nCompression mode                         : Lossy\nStream size                              : 145 MiB (10%)\nAlignment                                : Aligned on interleaves\nInterleave, duration                     : 24 ms (0.60 video frame)\n\n\n &lt;a href=&quot;\nhttp://postimg.org/image/lzs0s1mbz/&quot; rel=&quot;nofollow&quot; target=&quot;_NEW&quot;&gt;\nhttp://postimg.org/image/lzs0s1mbz/&lt;/a&gt;\n\n &lt;a href=&quot;\nhttp://postimg.org/image/4wknisg9b/&quot; rel=&quot;nofollow&quot; target=&quot;_NEW&quot;&gt;\nhttp://postimg.org/image/4wknisg9b/&lt;/a&gt;\n\n\n &lt;a href=&quot;\nhttp://postimg.org/image/5nddokimn/&quot; rel=&quot;nofollow&quot; target=&quot;_NEW&quot;&gt;\nhttp://postimg.org/image/5nddokimn/&lt;/a&gt;\n","torrent":{"xt":"urn:btih:b5896cc3ad0248c2c9097fff56c0bbb5e9b4eb0a","amp;dn":"Young+Bi+Passion+2+DVDRIP","amp;tr":["udp%3A%2F%2Ftracker.openbittorrent.com%3A80","udp%3A%2F%2Fopen.demonii.com%3A1337","udp%3A%2F%2Ftracker.coppersurfer.tk%3A6969","udp%3A%2F%2Fexodus.desync.com%3A6969"],"infoHash":"b5896cc3ad0248c2c9097fff56c0bbb5e9b4eb0a","infoHashBuffer":{"type":"Buffer","data":[181,137,108,195,173,2,72,194,201,9,127,255,86,192,187,181,233,180,235,10]},"announce":[],"urlList":[]}}